<svg xml:space="preserve" viewBox="22.464 42.810810810810814 266.76 270.27027027027026" version="1.1" xmlns:xlink="http://www.w3.org/1999/xlink" xmlns="http://www.w3.org/2000/svg" style="max-height: 500px" width="266.76" height="270.27027027027026">
<desc fill="#000000">Created with Fabric.js 5.2.4</desc>
<defs fill="#000000">
</defs>

<g transform="matrix(1.15 0 0 1.15 540 180)">




		
		
		
		<g transform="matrix(1 0 0 1 -334.6 0)">
<polygon points="115.55,-10.5 115.55,10.5 94.55,10.5 94.55,31.5 73.55,31.5 73.55,52.5 52.55,52.5 52.55,73.5 31.55,73.5 31.55,94.5 10.55,94.5 10.55,115.6 -10.45,115.6 -10.45,94.5 -31.55,94.5 -31.55,73.5 -52.55,73.5 -52.55,52.5 -73.55,52.5 -73.55,31.5 -94.55,31.5 -94.55,10.5 -115.55,10.5 -115.55,-10.5 -94.55,-10.5 -94.55,-31.5 -73.55,-31.5 -73.55,-52.5 -52.55,-52.5 -52.55,-73.5 -31.55,-73.5 -31.55,-94.5 -10.45,-94.5 -10.45,-115.6 10.55,-115.6 10.55,-94.5 31.55,-94.5 31.55,-73.5 52.55,-73.5 52.55,-52.5 73.55,-52.5 73.55,-31.5 94.55,-31.5 94.55,-10.5" style="stroke: none; stroke-width: 1; stroke-dasharray: none; stroke-linecap: butt; stroke-dashoffset: 0; stroke-linejoin: miter; stroke-miterlimit: 4; fill:#ed5027; fill-rule: nonzero; opacity: 1;"/>
</g>
		<g transform="matrix(1 0 0 1 -334.6 0)">
<polygon points="73.55,-10.5 73.55,10.5 52.55,10.5 52.55,31.5 31.55,31.5 31.55,52.5 10.55,52.5 10.55,73.5 -10.45,73.5 -10.45,52.5 -31.55,52.5 -31.55,31.5 -52.55,31.5 -52.55,10.5 -73.55,10.5 -73.55,-10.5 -52.55,-10.5 -52.55,-31.5 -31.55,-31.5 -31.55,-52.5 -10.45,-52.5 -10.45,-73.5 10.55,-73.5 10.55,-52.5 31.55,-52.5 31.55,-31.5 52.55,-31.5 52.55,-10.5" style="stroke: none; stroke-width: 1; stroke-dasharray: none; stroke-linecap: butt; stroke-dashoffset: 0; stroke-linejoin: miter; stroke-miterlimit: 4; fill: rgb(100,2,17); fill-rule: nonzero; opacity: 1;"/>
</g>
		<g transform="matrix(1 0 0 1 -334.6 0)">
<polygon points="31.55,-10.5 31.55,10.5 10.55,10.5 10.55,31.5 -10.45,31.5 -10.45,10.5 -31.55,10.5 -31.55,-10.5 -10.45,-10.5 -10.45,-31.5 10.55,-31.5 10.55,-10.5" style="stroke: none; stroke-width: 1; stroke-dasharray: none; stroke-linecap: butt; stroke-dashoffset: 0; stroke-linejoin: miter; stroke-miterlimit: 4; fill: rgb(251,221,195); fill-rule: nonzero; opacity: 1;"/>
</g>
		<g transform="matrix(1 0 0 1 -334.55 0)">
<rect height="21" width="21" ry="0" rx="0" y="-10.5" x="-10.5" style="stroke: none; stroke-width: 1; stroke-dasharray: none; stroke-linecap: butt; stroke-dashoffset: 0; stroke-linejoin: miter; stroke-miterlimit: 4; fill: #fbfbfb; fill-rule: nonzero; opacity: 1;"/>
</g>
</g>

</svg>